# xmcd
#
# Track frame offsets:
#	150
#	11901
#	28255
#	42855
#	55718
#	69779
#	84917
#	95324
#	108557
#	131599
#	150125
#	159999
#	171593
#	182657
#	198317
#
# Disc length: 2795 seconds
#
# Revision: 1
# Processed by: cddbd v1.5.2PL0 Copyright (c) Steve Scherf et al.
# Submitted via: audiograbber 1.83.01
#
DISCID=b50ae90f
DTITLE=Kally Darm - Fishing, more Delta Blues and beyond
DYEAR=2008
DGENRE=Blues
TTITLE0=Easy Winners (Scott Joplin)
TTITLE1=Ramblin on my Mind (Robert Johnson)
TTITLE2=Trouble soon be Over (Blind Willie Johnson)
TTITLE3=Sugar Dear (Fred McDowell)
TTITLE4=The Wind cries Mary (Jimi Hendrix)
TTITLE5=Honey, allow me one more Chance (Henry Thomas)
TTITLE6=Bourgeois Blues (Leadbelly)
TTITLE7=Divin Duck Blues (Willie Brown)
TTITLE8=Just a little While to stay here (trad.)
TTITLE9=Delta Medley (Johnson/Williamson)
TTITLE10=That will never happen no more (Blind Blake)
TTITLE11=Statesboro Blues (Blind Willie McTell)
TTITLE12=From 4 til Late (Robert Johnson)
TTITLE13=The First Time ever I saw your Face (Ewan McColl)
TTITLE14=Fishing Blues (Henry Thomas)
EXTD=
EXTT0=
EXTT1=
EXTT2=
EXTT3=
EXTT4=
EXTT5=
EXTT6=
EXTT7=
EXTT8=
EXTT9=
EXTT10=
EXTT11=
EXTT12=
EXTT13=
EXTT14=
PLAYORDER=
